<?xml version="1.0" standalone="no"?>
<!DOCTYPE svg PUBLIC "-//W3C//DTD SVG 20010904//EN"
 "http://www.w3.org/TR/2001/REC-SVG-20010904/DTD/svg10.dtd">
<svg version="1.0" xmlns="http://www.w3.org/2000/svg"
 width="300.000000pt" height="254.000000pt" viewBox="0 0 300.000000 254.000000"
 preserveAspectRatio="xMidYMid meet">
<metadata>
Created by potrace 1.10, written by Peter Selinger 2001-2011
</metadata>
<g transform="translate(0.000000,254.000000) scale(0.100000,-0.100000)"
fill="#000000" stroke="none">
<path d="M1030 2315 c0 -17 14 -50 31 -75 27 -39 30 -51 25 -91 -5 -35 0 -67
20 -128 18 -56 24 -90 19 -109 l-8 -27 -14 35 c-8 19 -18 51 -21 70 -8 50 -28
76 -76 99 -48 24 -106 77 -106 98 0 12 -40 35 -48 28 -2 -2 2 -14 9 -27 7 -12
13 -50 14 -83 3 -69 18 -108 52 -130 32 -21 63 -74 63 -107 0 -32 32 -110 57
-136 10 -11 30 -34 45 -53 15 -19 44 -42 65 -52 21 -11 49 -24 63 -31 18 -8
27 -23 33 -54 4 -23 12 -42 18 -42 5 0 9 -6 9 -14 0 -10 -21 -2 -67 26 -86 51
-96 62 -136 145 -27 56 -39 71 -77 90 -31 17 -52 37 -67 66 l-22 42 0 -55 c-1
-41 6 -66 24 -99 14 -24 34 -78 45 -120 18 -72 23 -79 88 -142 49 -47 72 -76
77 -100 4 -19 12 -40 17 -46 21 -26 -5 -12 -32 17 -15 17 -37 30 -49 30 -28 0
-26 -8 5 -32 33 -26 42 -51 45 -124 2 -72 26 -104 75 -104 24 0 38 -8 58 -35
18 -23 35 -35 51 -35 15 0 31 -10 41 -24 19 -30 47 -36 98 -19 21 7 40 13 41
13 5 0 45 -38 45 -43 0 -4 21 -41 48 -83 44 -72 53 -86 93 -145 15 -22 148
-237 176 -284 7 -11 17 -32 24 -47 6 -16 15 -28 20 -28 5 0 9 -5 9 -11 0 -6
18 -36 40 -66 22 -31 40 -61 40 -68 0 -6 14 -25 31 -43 30 -31 31 -31 62 -15
41 20 48 27 20 20 -17 -4 -28 2 -43 23 -24 33 -26 54 -5 47 8 -4 17 -2 21 4
10 17 -3 21 -26 9 -24 -13 -38 -1 -62 52 -7 16 -16 28 -20 28 -5 0 -8 7 -8 15
0 7 -8 19 -17 24 -10 6 -14 11 -9 11 5 0 -1 11 -14 25 -22 24 -23 27 -7 42 15
15 17 15 23 0 6 -17 24 -14 24 3 0 16 -42 23 -51 9 -8 -12 -11 -11 -19 1 -5 8
-10 25 -10 38 0 12 -4 22 -10 22 -5 0 -10 6 -10 13 0 6 -13 32 -29 56 -17 25
-28 48 -25 53 3 4 -2 8 -10 8 -19 0 -21 16 -3 23 6 3 1 6 -13 6 l-25 1 25 20
c18 14 21 20 9 20 -9 0 -19 -3 -23 -7 -15 -15 -34 -10 -45 13 -9 21 -8 24 14
30 14 3 25 10 25 15 0 13 -24 11 -37 -2 -9 -9 -16 -8 -28 5 -16 15 -15 18 7
37 l23 20 -24 -11 c-16 -8 -26 -9 -34 -1 -7 7 -2 14 16 22 15 7 27 16 27 21 0
5 -10 2 -22 -6 -26 -19 -38 -20 -38 -6 0 6 12 15 26 21 15 5 24 12 21 15 -3 3
-14 1 -25 -5 -26 -14 -42 -14 -42 -1 0 6 12 15 26 21 15 5 24 12 21 15 -3 3
-15 0 -27 -6 -16 -9 -25 -9 -33 -1 -9 9 -6 13 11 17 12 4 22 10 22 15 0 12
-17 11 -25 -1 -11 -18 -32 -10 -44 17 -11 23 -10 29 3 39 9 6 14 18 11 26 -4
9 1 18 9 21 9 4 16 14 16 23 0 8 5 14 11 12 11 -4 57 -78 82 -134 20 -42 168
-302 226 -394 61 -98 66 -107 92 -160 13 -25 32 -58 44 -75 12 -16 33 -51 45
-77 13 -27 27 -48 31 -48 15 0 21 21 10 34 -12 15 -44 70 -91 158 -16 31 -34
59 -40 63 -5 3 -10 15 -10 25 0 10 -4 20 -9 22 -5 1 -20 27 -35 56 -14 28 -30
52 -34 52 -4 0 -13 15 -21 33 -8 17 -22 43 -31 57 -19 27 -52 84 -82 140 -10
19 -30 53 -43 75 -14 22 -28 47 -32 55 -3 8 -13 23 -21 33 -8 9 -11 17 -7 17
4 0 1 8 -8 18 -19 21 -25 46 -12 47 21 2 59 18 70 29 70 75 93 146 74 231 -6
28 -10 71 -9 97 1 48 1 49 -93 187 -9 14 -15 32 -12 39 2 6 0 12 -4 12 -5 0
-12 -8 -15 -17 -5 -13 -12 -7 -27 25 -12 23 -25 42 -29 42 -14 0 -31 57 -24
83 3 16 2 27 -4 27 -15 0 -20 -21 -19 -73 1 -26 -1 -47 -4 -47 -9 0 -59 115
-59 136 0 28 -35 133 -48 146 -7 7 -12 16 -12 21 0 5 -11 22 -25 39 -19 23
-25 41 -25 81 -1 49 -2 51 -16 32 -12 -15 -14 -34 -9 -80 11 -115 9 -195 -6
-195 -13 0 -59 42 -59 54 0 43 -64 106 -108 106 -23 0 -42 26 -42 58 0 49 -33
127 -68 160 -21 19 -47 44 -59 55 l-23 22 0 -30z m104 -125 c8 -19 17 -51 21
-71 3 -20 19 -56 35 -80 21 -31 30 -56 30 -85 0 -44 20 -70 75 -95 16 -8 42
-33 58 -56 15 -24 34 -43 42 -43 22 0 75 -69 75 -98 0 -15 7 -40 16 -57 8 -16
16 -54 18 -85 2 -30 10 -69 19 -87 18 -33 21 -75 8 -107 -12 -31 -33 33 -34
104 0 33 -4 63 -9 66 -4 3 -8 18 -8 34 0 73 -27 80 -36 8 -7 -51 -7 -51 -25
-30 -9 12 -20 41 -24 65 -4 23 -14 54 -21 69 -20 39 -17 57 5 30 11 -12 22
-40 26 -62 4 -22 9 -40 12 -40 12 0 32 36 33 56 0 27 -37 75 -53 68 -8 -3 -18
10 -26 31 -17 49 -30 44 -23 -10 2 -25 2 -45 -1 -45 -4 0 -16 32 -28 70 -18
59 -28 76 -65 106 -24 20 -46 45 -50 56 -5 16 -8 18 -15 7 -9 -14 -12 -8 -22
36 -3 13 -5 9 -6 -11 -1 -18 7 -39 19 -52 11 -12 20 -25 20 -29 0 -5 14 -17
30 -27 35 -20 87 -93 75 -104 -4 -4 -10 -1 -12 6 -8 22 -54 72 -67 72 -7 0
-28 18 -46 39 -33 37 -35 46 -47 150 -7 61 -17 120 -23 131 -7 14 -7 20 0 20
22 0 -4 89 -31 105 -5 4 -9 14 -9 23 0 23 43 -30 64 -78z m-222 -102 c-7 -7
-12 -8 -12 -2 0 14 12 26 19 19 2 -3 -1 -11 -7 -17z m151 -112 c13 -39 27 -80
32 -91 8 -19 8 -19 -12 -2 -11 9 -23 17 -27 17 -13 0 -66 54 -66 67 0 7 -4 13
-8 13 -12 0 -72 61 -72 73 0 6 10 1 23 -10 34 -30 97 -66 97 -55 0 6 -20 28
-45 50 -59 52 -57 66 5 34 46 -24 50 -29 73 -96z m211 13 c27 -32 60 -99 52
-106 -8 -8 -66 28 -80 50 -7 12 -16 37 -20 55 -7 42 13 43 48 1z m230 -144 c1
-23 5 -45 8 -50 38 -64 58 -109 58 -135 0 -21 -4 -29 -12 -24 -6 4 -8 3 -4 -4
3 -6 2 -13 -4 -17 -5 -3 -7 -20 -3 -38 5 -26 3 -30 -7 -20 -8 7 -17 39 -21 71
-5 43 -18 78 -48 129 -50 84 -57 120 -41 199 l13 59 30 -65 c16 -36 30 -83 31
-105z m-458 19 c-24 20 -13 20 42 1 24 -9 58 -29 75 -45 18 -17 37 -30 42 -30
17 0 71 -54 88 -86 9 -17 23 -59 31 -94 21 -81 33 -110 46 -110 6 0 16 -5 23
-10 7 -6 22 -18 35 -28 16 -12 25 -30 28 -62 4 -38 3 -41 -6 -20 -12 28 -62
78 -103 103 -16 11 -30 30 -34 47 -3 17 -9 30 -14 30 -27 0 19 -79 88 -152 67
-70 90 -116 26 -51 -21 21 -53 50 -70 65 -35 30 -83 115 -83 147 0 10 -25 43
-55 71 -30 29 -61 67 -70 84 -18 38 -43 71 -49 65 -9 -9 46 -104 76 -130 38
-35 27 -38 -19 -6 -20 14 -42 43 -58 79 -14 32 -30 60 -35 63 -19 12 -10 26 9
15 11 -5 28 -10 37 -10 21 0 64 -38 64 -56 0 -6 19 -28 43 -49 23 -20 55 -48
70 -62 15 -14 30 -23 33 -20 9 9 -61 111 -91 132 -15 11 -41 31 -57 44 -16 13
-47 27 -69 32 -47 11 -91 37 -83 50 3 5 17 2 32 -7 25 -15 25 -15 8 0z m334 6
c4 0 10 -16 12 -35 4 -39 -7 -47 -18 -12 -3 12 -14 31 -23 41 -15 18 -15 19 2
13 10 -4 22 -7 27 -7z m-381 -159 c24 -19 47 -56 71 -112 25 -57 44 -88 61
-96 23 -12 23 -13 2 -13 -39 0 -81 46 -89 98 -4 26 -13 56 -21 67 -13 18 -14
15 -7 -30 9 -68 35 -116 76 -139 44 -26 85 -71 92 -104 12 -49 28 -82 41 -82
7 0 15 -7 19 -15 7 -18 5 -18 -31 -3 -36 16 -50 34 -63 79 -6 24 -31 56 -71
93 -66 62 -89 105 -89 164 0 21 -9 55 -20 77 -11 22 -20 41 -20 42 0 9 19 -1
49 -26z m660 -77 c7 -25 9 -66 5 -89 -4 -27 -2 -45 5 -49 6 -4 11 -17 11 -29
0 -13 7 -33 16 -46 11 -15 18 -50 20 -95 l4 -71 -19 65 c-10 36 -26 82 -35
103 -11 24 -18 73 -20 130 -2 51 -7 103 -12 116 -5 16 -4 22 3 18 6 -4 16 -28
22 -53z m-44 6 c4 -16 1 -45 -5 -64 -9 -28 -8 -40 4 -65 18 -34 19 -41 8 -41
-15 0 -30 37 -36 90 -6 42 -4 51 4 40 9 -12 11 -4 7 32 -5 51 7 57 18 8z m130
-89 c8 -16 22 -37 31 -46 11 -11 18 -37 20 -78 2 -34 8 -78 14 -97 15 -52 12
-84 -11 -127 -20 -36 -115 -111 -126 -99 -9 8 37 79 65 101 50 39 61 53 55 74
-7 27 -23 17 -23 -14 0 -12 -7 -26 -16 -29 -22 -9 -24 -6 -11 24 12 29 18 240
7 240 -4 0 -11 11 -14 24 -3 13 -9 31 -12 40 -10 27 5 18 21 -13z m-25 -28
c12 -27 20 -63 18 -83 l-3 -35 -18 35 c-18 34 -35 130 -24 130 3 0 15 -21 27
-47z m-150 -62 c0 -6 3 -11 8 -11 13 0 44 -83 49 -135 5 -56 -8 -132 -22 -127
-6 1 -9 23 -8 47 2 54 -13 51 -22 -5 -11 -68 -20 -45 -21 56 0 82 2 93 13 78
27 -37 14 15 -20 80 -18 34 -32 67 -29 74 4 13 52 -39 52 -57z m-343 -5 c39
-45 60 -109 43 -136 -11 -17 -45 37 -54 85 -4 18 -13 38 -21 45 -8 7 -15 16
-15 21 0 17 27 9 47 -15z m73 -27 c0 -6 -4 -7 -10 -4 -5 3 -10 11 -10 16 0 6
5 7 10 4 6 -3 10 -11 10 -16z m89 -89 c5 -14 15 -45 22 -70 7 -25 19 -53 27
-62 11 -13 11 -18 3 -18 -21 0 -68 29 -75 46 -5 13 -36 152 -36 162 0 12 51
-38 59 -58z m-65 -63 l7 -39 -30 18 c-35 21 -36 22 -16 48 8 11 15 34 16 50
l1 31 8 -35 c4 -19 11 -52 14 -73z m355 18 c1 -12 6 -26 13 -33 19 -19 18 -45
-2 -67 -10 -11 -25 -35 -33 -53 -8 -19 -24 -39 -36 -45 -23 -12 -36 -32 -64
-96 -9 -20 -17 -29 -22 -22 -4 7 -1 19 6 28 8 8 15 36 16 62 4 88 8 96 35 93
41 -4 59 27 65 114 4 52 9 72 14 59 4 -11 8 -29 8 -40z m-159 -44 c0 -28 -2
-32 -14 -21 -8 6 -23 26 -34 44 -14 24 -16 36 -8 49 10 16 13 15 33 -10 14
-17 23 -42 23 -62z m-16 -60 c20 -19 36 -44 36 -55 0 -13 -3 -17 -8 -9 -4 6
-21 15 -37 18 -29 7 -29 7 -10 -8 19 -16 18 -16 -17 -17 -21 0 -38 4 -38 9 0
5 -16 12 -35 15 -47 9 -99 41 -120 72 -23 36 -11 41 22 9 39 -38 84 -55 143
-55 55 0 60 4 30 30 -19 17 -40 61 -40 83 1 7 9 -4 20 -23 10 -19 34 -51 54
-69z m-279 65 c0 -1 8 -16 18 -34 24 -46 22 -53 -13 -40 -21 7 -36 22 -45 45
-19 46 -20 44 13 37 15 -4 27 -7 27 -8z m38 -104 c55 -4 80 -20 35 -20 -13 0
-40 -1 -61 -2 -45 -2 -77 22 -77 57 l0 24 23 -27 c19 -22 34 -28 80 -32z m17
-52 c0 -5 -4 -10 -10 -10 -5 0 -10 5 -10 10 0 6 5 10 10 10 6 0 10 -4 10 -10z
m90 -11 c30 -16 53 -20 99 -17 35 2 61 -1 62 -7 4 -17 -90 -46 -127 -39 -45 8
-44 24 1 17 23 -4 35 -2 35 6 0 6 -11 11 -24 11 -13 0 -48 11 -78 25 -35 16
-45 25 -31 25 12 0 40 -9 63 -21z m-39 -36 c12 -15 12 -16 -4 -10 -10 4 -23 7
-28 7 -5 0 -9 5 -9 10 0 16 26 12 41 -7z m193 -27 c-11 -8 -34 -17 -50 -21
-25 -4 -23 -2 11 14 48 23 67 27 39 7z"/>
<path d="M1140 2058 c0 -9 7 -22 17 -29 15 -13 15 -12 3 11 -17 34 -20 36 -20
18z"/>
<path d="M2972 1475 c0 -16 2 -22 5 -12 2 9 2 23 0 30 -3 6 -5 -1 -5 -18z"/>
<path d="M1596 985 c-16 -12 -17 -15 -4 -15 8 0 21 7 28 15 16 19 1 19 -24 0z"/>
<path d="M1735 810 c-3 -5 -1 -10 4 -10 6 0 11 5 11 10 0 6 -2 10 -4 10 -3 0
-8 -4 -11 -10z"/>
<path d="M1740 730 c-13 -8 -13 -10 2 -10 9 0 20 5 23 10 8 13 -5 13 -25 0z"/>
<path d="M1918 493 c7 -3 16 -2 19 1 4 3 -2 6 -13 5 -11 0 -14 -3 -6 -6z"/>
<path d="M1960 404 c0 -8 5 -12 10 -9 6 3 10 10 10 16 0 5 -4 9 -10 9 -5 0
-10 -7 -10 -16z"/>
<path d="M1960 370 c0 -5 7 -10 15 -10 8 0 15 5 15 10 0 6 -7 10 -15 10 -8 0
-15 -4 -15 -10z"/>
<path d="M1990 340 c0 -5 5 -10 11 -10 5 0 7 5 4 10 -3 6 -8 10 -11 10 -2 0
-4 -4 -4 -10z"/>
<path d="M2010 310 c0 -5 5 -10 10 -10 6 0 10 5 10 10 0 6 -4 10 -10 10 -5 0
-10 -4 -10 -10z"/>
<path d="M2040 280 c0 -5 5 -10 10 -10 6 0 10 5 10 10 0 6 -4 10 -10 10 -5 0
-10 -4 -10 -10z"/>
<path d="M2073 223 c-21 -8 -15 -22 7 -16 11 3 20 9 20 14 0 10 -8 10 -27 2z"/>
<path d="M838 63 c6 -2 18 -2 25 0 6 3 1 5 -13 5 -14 0 -19 -2 -12 -5z"/>
</g>
</svg>
